<?xml version="1.0" encoding="UTF-8"?>
<!DOCTYPE svg PUBLIC "-//W3C//DTD SVG 1.1//EN" "http://www.w3.org/Graphics/SVG/1.1/DTD/svg11.dtd">
<!-- Creator: CorelDRAW X7 -->
<svg xmlns="http://www.w3.org/2000/svg" xml:space="preserve" width="140mm" height="50mm" version="1.1" style="shape-rendering:geometricPrecision; text-rendering:geometricPrecision; image-rendering:optimizeQuality; fill-rule:evenodd; clip-rule:evenodd"
viewBox="0 0 14000 5000"
 xmlns:xlink="http://www.w3.org/1999/xlink">
 <defs>
  <style type="text/css">
   <![CDATA[
    .fil0 {fill:none}
    .fil4 {fill:#ED732B}
    .fil5 {fill:#72B543}
    .fil3 {fill:#146DA0}
    .fil2 {fill:#2B2A29;fill-rule:nonzero}
    .fil1 {fill:#146DA0;fill-rule:nonzero}
   ]]>
  </style>
 </defs>
 <g id="Layer_x0020_1">
  <metadata id="CorelCorpID_0Corel-Layer"/>
  <rect class="fil0" width="14000" height="5000"/>
  <g id="_2292052137920">
   <g>
    <path class="fil1" d="M5009 1968l-394 0 0 -48c35,-2 64,-7 87,-13 22,-7 34,-15 34,-25 0,-4 0,-9 -1,-15 -1,-6 -3,-11 -4,-15l-79 -213 -333 0c-12,32 -22,59 -30,82 -8,23 -15,44 -21,64 -6,19 -10,35 -12,47 -3,12 -4,22 -4,29 0,18 14,32 42,42 28,9 60,15 95,17l0 48 -357 0 0 -48c11,-1 26,-3 43,-8 18,-4 32,-10 43,-17 18,-12 32,-24 42,-38 9,-13 19,-31 28,-54 48,-119 100,-253 158,-401 57,-148 109,-280 154,-396l53 0 316 818c7,17 15,31 23,42 8,11 20,21 36,31 10,7 23,12 40,16 16,4 30,7 41,7l0 48zm-381 -387l-144 -369 -142 369 286 0z"/>
    <path class="fil1" d="M5633 1532c20,23 35,47 44,74 10,26 15,57 15,92 0,84 -31,153 -93,207 -62,55 -139,82 -230,82 -43,0 -85,-7 -127,-20 -43,-13 -79,-29 -110,-48l-29 49 -53 0 -10 -324 55 0c11,39 24,76 39,108 15,32 35,62 59,90 23,26 50,47 81,63 31,15 67,23 108,23 31,0 58,-4 81,-12 23,-8 41,-19 55,-34 15,-14 25,-32 32,-51 7,-20 10,-43 10,-69 0,-37 -10,-73 -32,-105 -21,-33 -53,-58 -95,-75 -29,-11 -62,-24 -100,-38 -37,-14 -69,-28 -96,-40 -54,-24 -95,-56 -125,-95 -29,-39 -44,-90 -44,-153 0,-36 7,-69 22,-101 14,-31 35,-59 63,-83 25,-23 56,-42 91,-55 35,-13 72,-20 110,-20 44,0 83,7 117,21 35,13 66,29 95,47l27 -46 54 0 5 315 -55 0c-9,-36 -20,-70 -33,-103 -12,-33 -28,-63 -47,-90 -20,-26 -43,-46 -70,-62 -28,-15 -62,-23 -102,-23 -42,0 -78,14 -108,41 -30,27 -45,60 -45,99 0,41 10,75 29,102 19,27 47,49 83,67 33,15 65,29 96,40 32,11 62,24 92,36 26,12 52,25 77,40 24,15 46,32 64,51z"/>
    <path class="fil1" d="M6794 1968l-395 0 0 -48c11,-1 26,-2 47,-4 20,-2 34,-4 41,-8 13,-5 23,-14 29,-25 6,-10 9,-24 9,-42l0 -337 -444 0 0 330c0,16 2,29 7,39 6,11 16,20 31,28 8,4 22,8 41,12 20,4 35,7 46,7l0 48 -394 0 0 -48c11,-1 26,-2 46,-4 20,-2 34,-4 42,-8 13,-5 23,-14 29,-25 6,-10 9,-24 9,-42l0 -684c0,-14 -3,-27 -8,-39 -6,-11 -16,-21 -30,-27 -12,-6 -27,-11 -44,-16 -17,-4 -31,-7 -44,-8l0 -48 394 0 0 48c-12,1 -28,3 -46,6 -18,4 -32,7 -41,10 -15,6 -25,15 -31,27 -5,13 -7,26 -7,41l0 294 444 0 0 -287c0,-15 -3,-28 -8,-40 -6,-11 -16,-21 -30,-27 -12,-6 -26,-11 -44,-16 -16,-4 -31,-7 -44,-8l0 -48 395 0 0 48c-13,1 -28,3 -47,6 -18,4 -32,7 -41,10 -15,6 -25,15 -31,27 -5,13 -7,26 -7,41l0 683c0,16 2,29 7,39 6,11 16,20 31,28 8,4 22,8 41,12 20,4 35,7 47,7l0 48z"/>
    <path class="fil1" d="M7341 1968l-427 0 0 -48c12,-1 30,-2 52,-4 23,-2 39,-4 48,-8 15,-6 26,-14 32,-24 7,-10 10,-24 10,-42l0 -686c0,-15 -2,-28 -7,-39 -5,-10 -16,-19 -35,-26 -13,-6 -30,-11 -50,-15 -20,-5 -37,-8 -50,-9l0 -48 427 0 0 48c-14,1 -30,2 -49,5 -20,3 -36,7 -50,11 -17,6 -29,14 -35,26 -5,12 -8,26 -8,40l0 686c0,15 3,28 9,39 7,12 18,21 34,27 9,4 24,8 45,12 22,4 40,7 54,7l0 48z"/>
    <path class="fil1" d="M8221 1686l-20 282 -740 0 0 -48c11,-1 26,-3 46,-5 20,-2 34,-5 42,-8 14,-6 23,-15 29,-26 6,-11 9,-25 9,-42l0 -679c0,-15 -2,-28 -7,-40 -6,-11 -16,-21 -31,-28 -10,-5 -24,-11 -42,-16 -19,-5 -34,-8 -46,-9l0 -48 400 0 0 48c-13,1 -29,3 -49,7 -20,4 -34,7 -43,11 -15,5 -26,14 -31,27 -6,13 -9,27 -9,42l0 636c0,30 2,52 5,69 3,16 9,29 20,37 10,8 26,14 46,16 20,3 48,4 85,4 16,0 33,-1 51,-1 18,-1 35,-3 51,-6 15,-2 30,-6 43,-11 13,-4 23,-10 29,-17 18,-21 39,-52 63,-94 25,-41 42,-75 51,-101l48 0z"/>
    <path class="fil1" d="M9522 1415c-26,2 -53,7 -80,16 -27,8 -47,21 -61,39 -10,10 -19,26 -29,47 -9,21 -20,46 -34,74 -13,29 -26,57 -40,84 -14,28 -32,55 -53,83 18,21 39,45 65,70 26,25 48,43 66,54 18,10 43,19 76,26 33,7 59,11 80,12l0 48 -275 0 -99 -114c-15,16 -32,32 -51,50 -19,16 -39,31 -60,43 -23,14 -46,24 -70,32 -23,7 -51,11 -82,11 -33,0 -66,-5 -98,-15 -33,-9 -63,-24 -89,-45 -26,-21 -47,-47 -63,-79 -16,-32 -24,-70 -24,-115 0,-55 14,-105 44,-149 29,-45 83,-92 163,-143 -36,-48 -64,-89 -84,-124 -20,-34 -30,-73 -30,-117 0,-30 6,-59 18,-84 12,-26 30,-48 52,-67 20,-18 45,-31 75,-41 29,-10 59,-15 89,-15 36,0 67,6 94,17 27,12 49,26 66,45 16,17 27,36 36,59 8,22 12,44 12,66 0,54 -16,100 -50,138 -33,39 -78,74 -136,104 42,57 83,109 123,155 40,47 78,93 115,138 30,-48 52,-92 69,-135 16,-42 24,-79 24,-111 0,-14 -10,-25 -31,-33 -20,-9 -49,-17 -85,-24l0 -48 357 0 0 48zm-472 -219c0,-45 -10,-80 -30,-105 -20,-24 -48,-36 -85,-36 -21,0 -38,4 -52,13 -14,8 -26,19 -35,32 -9,12 -15,26 -20,40 -3,14 -5,27 -5,38 0,31 8,62 24,94 15,31 41,69 74,114 46,-26 79,-54 99,-84 20,-30 30,-65 30,-106zm52 620c-41,-53 -88,-111 -140,-173 -52,-63 -93,-116 -124,-159 -36,24 -62,54 -77,87 -14,34 -22,72 -22,116 0,60 17,110 52,150 34,40 80,60 138,60 33,0 65,-7 96,-21 31,-14 57,-34 77,-60z"/>
    <path class="fil1" d="M2161 3056l-394 0 0 -47c34,-3 63,-7 86,-14 23,-7 34,-15 34,-25 0,-4 0,-8 -1,-14 -1,-6 -2,-11 -4,-16l-78 -212 -333 0c-13,31 -23,58 -31,81 -7,24 -14,45 -21,65 -5,19 -9,34 -12,46 -2,12 -3,22 -3,30 0,18 14,31 42,41 28,10 60,16 95,18l0 47 -358 0 0 -47c12,-1 26,-4 44,-8 17,-4 32,-10 43,-17 18,-12 31,-25 41,-38 10,-13 20,-31 29,-54 48,-119 100,-253 158,-401 57,-149 108,-281 153,-397l54 0 316 818c7,18 14,32 23,43 8,10 20,21 35,31 10,6 24,11 40,15 17,5 31,7 42,8l0 47zm-381 -387l-144 -368 -142 368 286 0z"/>
    <path class="fil1" d="M2785 2621c20,22 35,47 44,73 10,27 14,57 14,93 0,84 -31,153 -92,207 -62,54 -139,82 -231,82 -42,0 -84,-7 -127,-20 -42,-14 -79,-30 -109,-48l-29 48 -53 0 -10 -324 55 0c11,40 24,76 39,108 15,33 34,63 59,91 23,26 50,47 81,63 31,15 67,23 108,23 31,0 57,-4 80,-12 23,-8 42,-19 56,-34 14,-15 25,-32 32,-52 7,-20 10,-42 10,-68 0,-38 -11,-73 -32,-106 -21,-33 -53,-57 -95,-74 -29,-12 -62,-25 -100,-39 -37,-14 -69,-27 -97,-40 -53,-24 -95,-55 -124,-94 -30,-39 -45,-90 -45,-153 0,-36 8,-70 22,-101 15,-31 36,-59 63,-84 26,-23 57,-41 92,-54 35,-13 72,-20 110,-20 43,0 82,7 117,20 35,14 66,30 95,47l27 -45 53 0 6 315 -55 0c-10,-36 -21,-71 -33,-104 -12,-33 -28,-63 -48,-89 -19,-26 -42,-47 -70,-62 -27,-15 -61,-23 -101,-23 -42,0 -78,13 -108,41 -30,27 -45,60 -45,99 0,41 9,75 29,102 19,27 47,49 83,66 33,16 64,29 96,40 31,12 62,24 91,37 27,12 53,25 77,39 25,15 46,32 65,52z"/>
    <path class="fil1" d="M3553 2621c20,22 34,47 44,73 10,27 14,57 14,93 0,84 -31,153 -92,207 -62,54 -139,82 -231,82 -42,0 -85,-7 -127,-20 -42,-14 -79,-30 -109,-48l-29 48 -54 0 -9 -324 55 0c11,40 24,76 39,108 15,33 34,63 59,91 23,26 50,47 81,63 31,15 67,23 108,23 30,0 57,-4 80,-12 23,-8 42,-19 56,-34 14,-15 25,-32 32,-52 7,-20 10,-42 10,-68 0,-38 -11,-73 -32,-106 -21,-33 -53,-57 -96,-74 -29,-12 -62,-25 -99,-39 -37,-14 -70,-27 -97,-40 -53,-24 -95,-55 -124,-94 -30,-39 -45,-90 -45,-153 0,-36 8,-70 22,-101 15,-31 36,-59 63,-84 26,-23 56,-41 92,-54 35,-13 71,-20 110,-20 43,0 82,7 117,20 34,14 66,30 94,47l28 -45 53 0 6 315 -55 0c-10,-36 -21,-71 -33,-104 -12,-33 -28,-63 -48,-89 -19,-26 -42,-47 -70,-62 -27,-15 -61,-23 -101,-23 -43,0 -79,13 -109,41 -29,27 -44,60 -44,99 0,41 9,75 29,102 19,27 47,49 83,66 32,16 64,29 96,40 31,12 62,24 91,37 27,12 53,25 77,39 25,15 46,32 65,52z"/>
    <path class="fil1" d="M4496 2220c42,44 75,96 98,158 24,62 36,130 36,205 0,76 -12,144 -36,206 -25,61 -58,114 -101,157 -41,43 -89,76 -144,99 -55,23 -113,35 -175,35 -66,0 -127,-13 -183,-37 -56,-25 -104,-60 -144,-104 -40,-43 -72,-96 -94,-157 -23,-62 -35,-128 -35,-199 0,-77 12,-146 36,-206 24,-61 57,-113 100,-157 42,-44 90,-77 146,-100 55,-24 113,-35 174,-35 63,0 122,12 178,35 55,24 103,57 144,100zm-99 674c25,-41 43,-87 54,-139 11,-51 17,-108 17,-172 0,-65 -6,-125 -19,-179 -13,-55 -31,-101 -56,-140 -24,-38 -55,-67 -92,-89 -37,-21 -79,-31 -127,-31 -54,0 -99,12 -136,36 -38,25 -68,58 -92,99 -22,39 -39,85 -50,138 -11,53 -16,108 -16,166 0,64 5,123 17,174 12,52 30,98 55,139 24,39 54,70 91,92 36,22 80,33 131,33 48,0 91,-11 129,-34 38,-22 70,-53 94,-93z"/>
    <path class="fil1" d="M5167 3080c-57,0 -111,-11 -162,-34 -52,-22 -98,-54 -138,-96 -40,-42 -71,-93 -95,-154 -23,-60 -35,-128 -35,-204 0,-76 11,-145 34,-206 23,-62 56,-115 96,-160 41,-44 89,-78 144,-103 55,-23 114,-36 177,-36 46,0 89,6 126,18 38,11 74,27 108,48l28 -45 53 0 6 338 -55 0c-7,-33 -18,-68 -32,-107 -14,-38 -31,-71 -50,-98 -21,-30 -47,-53 -76,-71 -29,-17 -63,-25 -100,-25 -43,0 -83,9 -121,29 -37,19 -69,47 -96,85 -25,36 -46,82 -60,138 -15,55 -22,117 -22,186 0,61 8,116 23,167 15,51 37,95 65,133 29,38 62,68 101,89 39,22 82,32 130,32 36,0 69,-5 99,-17 31,-11 57,-26 79,-45 22,-19 41,-42 58,-67 17,-25 31,-52 42,-81l50 24c-38,94 -89,161 -152,201 -63,41 -138,61 -225,61z"/>
    <path class="fil1" d="M6043 3056l-427 0 0 -47c12,-1 29,-3 52,-5 22,-1 38,-4 48,-8 15,-5 25,-13 32,-23 7,-10 10,-24 10,-42l0 -686c0,-16 -3,-29 -7,-39 -5,-11 -17,-20 -35,-27 -13,-5 -30,-10 -51,-15 -20,-4 -36,-7 -49,-8l0 -48 427 0 0 48c-14,0 -31,2 -50,5 -19,3 -36,6 -50,11 -17,5 -28,14 -34,26 -6,12 -9,25 -9,40l0 686c0,15 4,28 10,39 7,11 17,20 33,27 10,4 25,7 46,11 21,5 39,7 54,8l0 47z"/>
    <path class="fil1" d="M7045 3056l-394 0 0 -47c35,-3 64,-7 87,-14 23,-7 34,-15 34,-25 0,-4 0,-8 -1,-14 -1,-6 -2,-11 -4,-16l-79 -212 -332 0c-13,31 -23,58 -31,81 -8,24 -15,45 -21,65 -6,19 -10,34 -12,46 -2,12 -3,22 -3,30 0,18 14,31 42,41 28,10 60,16 95,18l0 47 -358 0 0 -47c12,-1 26,-4 44,-8 17,-4 31,-10 42,-17 18,-12 32,-25 42,-38 10,-13 19,-31 29,-54 47,-119 100,-253 157,-401 58,-149 109,-281 154,-397l54 0 316 818c7,18 14,32 22,43 9,10 21,21 36,31 10,6 24,11 40,15 17,5 30,7 41,8l0 47zm-381 -387l-144 -368 -141 368 285 0z"/>
    <path class="fil1" d="M7850 2365l-46 0c-5,-16 -12,-35 -22,-57 -11,-22 -22,-43 -35,-62 -14,-21 -28,-39 -44,-54 -16,-16 -31,-25 -46,-27 -14,-1 -31,-3 -52,-4 -21,-1 -41,-1 -58,-1l-39 0 0 758c0,15 3,29 9,41 6,12 17,22 33,28 8,3 25,7 50,13 26,5 46,8 60,9l0 47 -448 0 0 -47c13,-1 32,-3 58,-6 25,-2 43,-6 53,-10 14,-6 25,-14 32,-25 7,-11 11,-25 11,-44l0 -764 -39 0c-14,0 -31,0 -52,1 -20,1 -40,2 -59,4 -14,2 -30,11 -46,27 -15,16 -30,33 -43,54 -14,20 -25,41 -36,63 -10,23 -17,41 -21,56l-47 0 0 -257 827 0 0 257z"/>
    <path class="fil1" d="M8723 2777l-18 279 -787 0 0 -47c14,-1 31,-3 54,-6 22,-3 37,-6 43,-9 15,-7 25,-16 30,-26 6,-11 9,-24 9,-41l0 -681c0,-15 -3,-28 -8,-39 -5,-11 -15,-21 -31,-28 -12,-6 -28,-11 -48,-15 -21,-4 -37,-7 -49,-8l0 -48 734 0 0 229 -51 0c-9,-34 -28,-70 -58,-108 -29,-38 -57,-59 -84,-62 -14,-2 -30,-3 -49,-4 -19,-1 -41,-2 -66,-2l-148 0 0 377 106 0c34,0 60,-3 75,-10 16,-6 30,-17 42,-32 10,-13 18,-30 25,-52 6,-21 11,-42 13,-61l51 0 0 371 -51 0c-1,-21 -6,-44 -14,-68 -8,-23 -16,-41 -24,-52 -14,-17 -30,-28 -47,-34 -18,-5 -41,-8 -70,-8l-106 0 0 285c0,28 2,51 6,67 4,17 12,29 23,38 12,8 28,14 48,16 20,3 48,4 85,4 15,0 34,0 58,0 24,0 44,-1 61,-3 17,-2 34,-5 52,-10 18,-4 31,-11 39,-19 20,-21 41,-53 64,-97 22,-43 37,-75 43,-96l48 0z"/>
    <path class="fil1" d="M9410 2621c20,22 35,47 45,73 9,27 14,57 14,93 0,84 -31,153 -93,207 -61,54 -138,82 -230,82 -42,0 -85,-7 -127,-20 -42,-14 -79,-30 -110,-48l-28 48 -54 0 -9 -324 55 0c11,40 24,76 39,108 15,33 34,63 59,91 23,26 50,47 81,63 31,15 67,23 108,23 30,0 57,-4 80,-12 23,-8 42,-19 56,-34 14,-15 25,-32 32,-52 6,-20 10,-42 10,-68 0,-38 -11,-73 -32,-106 -21,-33 -53,-57 -96,-74 -29,-12 -62,-25 -99,-39 -38,-14 -70,-27 -97,-40 -53,-24 -95,-55 -124,-94 -30,-39 -45,-90 -45,-153 0,-36 7,-70 22,-101 15,-31 36,-59 63,-84 26,-23 56,-41 91,-54 36,-13 72,-20 111,-20 43,0 82,7 117,20 34,14 66,30 94,47l28 -45 53 0 6 315 -55 0c-10,-36 -21,-71 -33,-104 -12,-33 -28,-63 -48,-89 -19,-26 -42,-47 -70,-62 -28,-15 -61,-23 -101,-23 -43,0 -79,13 -109,41 -29,27 -44,60 -44,99 0,41 9,75 28,102 20,27 47,49 84,66 32,16 64,29 96,40 31,12 62,24 91,37 27,12 52,25 77,39 25,15 46,32 64,52z"/>
   </g>
   <g>
    <path class="fil2" d="M1506 4070c-15,10 -34,18 -55,25 -22,6 -42,9 -61,9 -61,0 -111,-19 -148,-59 -38,-39 -56,-90 -56,-153 0,-61 19,-111 57,-151 38,-40 87,-60 147,-60 24,0 45,3 64,8 19,6 36,14 52,26l0 56c-17,-14 -35,-25 -53,-32 -19,-7 -37,-11 -57,-11 -47,0 -85,16 -115,46 -30,31 -45,70 -45,118 0,48 14,88 43,119 28,30 65,46 110,46 22,0 43,-4 62,-11 19,-8 38,-19 55,-33l0 57z"/>
    <polygon class="fil2" points="2099,4095 2048,4095 2048,3903 1861,3903 1861,4095 1811,4095 1811,3689 1861,3689 1861,3855 2048,3855 2048,3689 2099,3689 "/>
    <path class="fil2" d="M2643 3935l-65 -147 -65 147 130 0zm127 160l-56 0 -52 -117 -169 0 -51 117 -56 0 192 -417 192 417z"/>
    <path class="fil2" d="M3232 3802c0,-23 -8,-39 -22,-50 -14,-10 -37,-15 -68,-15l-35 0 0 126 35 0c31,0 54,-4 68,-14 15,-10 22,-25 22,-47zm71 293l-62 0 -119 -189 -15 0 0 189 -50 0 0 -406 91 0c44,0 77,10 100,29 23,19 34,46 34,81 0,32 -9,57 -28,76 -19,18 -45,28 -78,29l127 191z"/>
    <polygon class="fil2" points="3791,3735 3699,3735 3699,4095 3648,4095 3648,3735 3556,3735 3556,3689 3791,3689 "/>
    <polygon class="fil2" points="4299,4095 4086,4095 4086,3689 4299,3689 4299,3737 4137,3737 4137,3855 4299,3855 4299,3903 4137,3903 4137,4048 4299,4048 "/>
    <path class="fil2" d="M4793 3802c0,-23 -7,-39 -21,-50 -14,-10 -37,-15 -68,-15l-35 0 0 126 35 0c31,0 54,-4 68,-14 14,-10 21,-25 21,-47zm72 293l-62 0 -119 -189 -15 0 0 189 -51 0 0 -406 92 0c44,0 77,10 100,29 23,19 34,46 34,81 0,32 -9,57 -28,76 -19,18 -45,28 -78,29l127 191z"/>
    <polygon class="fil2" points="5376,4095 5163,4095 5163,3689 5376,3689 5376,3737 5213,3737 5213,3855 5376,3855 5376,3903 5213,3903 5213,4048 5376,4048 "/>
    <path class="fil2" d="M5949 3892c0,-50 -14,-89 -43,-115 -29,-27 -70,-40 -125,-40l-35 0 0 311 32 0c58,0 101,-13 129,-38 28,-26 42,-65 42,-118zm50 1c0,66 -19,117 -57,151 -38,34 -94,51 -168,51l-79 0 0 -406 81 0c72,0 127,18 166,53 38,36 57,86 57,151z"/>
    <path class="fil2" d="M6834 3935l-66 -147 -65 147 131 0zm126 160l-56 0 -52 -117 -168 0 -52 117 -56 0 192 -417 192 417z"/>
    <path class="fil2" d="M7525 4070c-15,10 -34,18 -56,25 -21,6 -41,9 -60,9 -61,0 -111,-19 -148,-59 -38,-39 -56,-90 -56,-153 0,-61 19,-111 57,-151 38,-40 87,-60 147,-60 24,0 45,3 64,8 19,6 36,14 52,26l0 56c-18,-14 -35,-25 -54,-32 -18,-7 -36,-11 -56,-11 -47,0 -85,16 -115,46 -30,31 -45,70 -45,118 0,48 14,88 43,119 28,30 65,46 110,46 22,0 43,-4 62,-11 19,-8 38,-19 55,-33l0 57z"/>
    <path class="fil2" d="M8125 4070c-15,10 -34,18 -55,25 -22,6 -42,9 -61,9 -61,0 -111,-19 -148,-59 -38,-39 -56,-90 -56,-153 0,-61 19,-111 57,-151 38,-40 87,-60 147,-60 24,0 45,3 64,8 19,6 36,14 52,26l0 56c-18,-14 -35,-25 -54,-32 -18,-7 -36,-11 -56,-11 -47,0 -85,16 -115,46 -30,31 -45,70 -45,118 0,48 14,88 43,119 28,30 65,46 110,46 22,0 43,-4 62,-11 19,-8 38,-19 55,-33l0 57z"/>
    <path class="fil2" d="M8765 3892c0,-45 -15,-84 -45,-116 -30,-32 -67,-48 -111,-48 -47,0 -85,16 -113,48 -28,33 -42,71 -42,116 0,46 15,85 45,117 30,32 66,48 110,48 44,0 81,-16 111,-48 30,-32 45,-71 45,-117zm51 0c0,60 -20,110 -60,151 -40,41 -89,61 -147,61 -57,0 -106,-20 -146,-62 -40,-41 -61,-91 -61,-150 0,-59 20,-109 60,-150 40,-41 89,-61 147,-61 59,0 108,20 147,61 40,41 60,91 60,150z"/>
    <path class="fil2" d="M9407 3943c0,54 -12,95 -35,121 -24,27 -60,40 -107,40 -48,0 -84,-13 -107,-40 -24,-27 -36,-68 -36,-121l0 -254 50 0 0 264c0,35 8,61 23,78 16,17 39,26 70,26 31,0 54,-9 69,-26 15,-17 22,-43 22,-78l0 -264 51 0 0 254z"/>
    <polygon class="fil2" points="10081,4107 9785,3799 9785,4095 9734,4095 9734,3678 10031,3985 10031,3689 10081,3689 "/>
    <polygon class="fil2" points="10611,3735 10519,3735 10519,4095 10468,4095 10468,3735 10376,3735 10376,3689 10611,3689 "/>
    <path class="fil2" d="M11088 3935l-65 -147 -65 147 130 0zm127 160l-56 0 -52 -117 -169 0 -51 117 -56 0 192 -417 192 417z"/>
    <polygon class="fil2" points="11849,4107 11552,3799 11552,4095 11502,4095 11502,3678 11798,3985 11798,3689 11849,3689 "/>
    <polygon class="fil2" points="12379,3735 12287,3735 12287,4095 12236,4095 12236,3735 12144,3735 12144,3689 12379,3689 "/>
    <path class="fil2" d="M12882 3987c0,37 -11,65 -34,86 -22,21 -53,31 -93,31 -27,0 -51,-6 -71,-18 -20,-12 -35,-29 -44,-50l35 -32c6,16 16,29 31,39 15,9 32,14 51,14 24,0 42,-6 55,-18 13,-12 19,-28 19,-49 0,-18 -6,-34 -19,-47 -13,-14 -34,-28 -64,-43 -35,-18 -60,-35 -74,-52 -14,-17 -21,-39 -21,-65 0,-31 10,-55 31,-74 21,-19 48,-28 83,-28 21,0 39,4 55,12 16,8 29,20 40,36l-33 33c-6,-11 -15,-19 -26,-25 -12,-6 -24,-9 -38,-9 -19,0 -34,5 -45,14 -11,10 -16,23 -16,39 0,14 4,27 13,38 9,10 26,23 53,37 46,25 77,47 91,65 14,19 21,41 21,66z"/>
   </g>
   <g id="ca-india-seeklogo.pdf">
    <path class="fil3" d="M10205 2789l72 0 0 407 -72 0 0 -407zm1547 -1515l25 -27 232 471 -35 8 -222 -452zm397 730l324 659c9,14 19,22 30,21l-6 35c-22,-4 -41,-18 -57,-42l-323 -659c11,-5 22,-9 32,-14zm-862 -950c90,-1 86,-173 0,-186l-509 -3c-977,13 -1299,1628 57,1787 100,-4 192,-37 254,-103l312 -618 -54 -96c37,-4 73,-8 109,-13l295 -583c29,-64 60,-68 93,-1l226 466c34,-8 69,-16 103,-24 38,-9 77,-19 116,-29l-357 -731c-71,-80 -144,-95 -221,5l-718 1403c-35,65 -83,103 -141,117 -856,33 -1083,-1280 -42,-1400l477 9zm918 927l317 654c89,38 171,39 246,-5l-361 -739c-66,31 -134,61 -202,90zm-1577 808l213 278 0 -278 72 0 0 372 0 35 -54 0 -212 -278 0 278 -72 0 0 -371 0 -36 53 0zm1662 260l173 0 -87 -185 -86 185zm51 -260l70 0 2 0 190 407 -72 0 -37 -80 -235 0 -38 80 -72 0 191 -407 1 0zm-514 0l71 0 0 407 -71 0 0 -407zm-628 0l31 0 0 -1 141 0c105,0 191,86 191,191l0 27c0,105 -86,191 -191,191l-141 0 0 -1 -31 0 0 -407zm71 68l0 271 101 0c67,0 122,-55 122,-122l0 -27c0,-67 -55,-122 -122,-122l-101 0z"/>
    <path class="fil4" d="M11347 1835c268,-30 544,-87 826,-155 205,-50 425,-112 634,-171 -356,202 -801,317 -1206,432l119 242 -140 63 -233 -411z"/>
    <path class="fil5" d="M11745 1995c441,-126 873,-273 1301,-430 -335,184 -682,360 -1074,510l115 228 -127 72 -215 -380z"/>
   </g>
  </g>
 </g>
</svg>
